<mxfile host="app.diagrams.net" modified="2021-03-03T13:24:34.123Z" agent="5.0 (Windows NT 10.0; Win64; x64) AppleWebKit/537.36 (KHTML, like Gecko) Chrome/88.0.4324.190 Safari/537.36" etag="fRCUxbD3_RgFmlqNGfym" version="14.4.3" type="github">
  <diagram id="aqvIpeSfmf4C2DmQuBRr" name="Page-1">
    <mxGraphModel dx="1736" dy="900" grid="1" gridSize="10" guides="1" tooltips="1" connect="1" arrows="1" fold="1" page="1" pageScale="1" pageWidth="827" pageHeight="1169" math="0" shadow="0">
      <root>
        <mxCell id="0" />
        <mxCell id="1" parent="0" />
        <mxCell id="F4dXuQAAL5yqhPB8CNjt-1" value="Theatre" style="rounded=0;whiteSpace=wrap;html=1;" vertex="1" parent="1">
          <mxGeometry x="350" y="200" width="120" height="60" as="geometry" />
        </mxCell>
        <mxCell id="F4dXuQAAL5yqhPB8CNjt-2" value="Name" style="ellipse;whiteSpace=wrap;html=1;" vertex="1" parent="1">
          <mxGeometry x="210" y="100" width="120" height="80" as="geometry" />
        </mxCell>
        <mxCell id="F4dXuQAAL5yqhPB8CNjt-3" value="Location" style="ellipse;whiteSpace=wrap;html=1;" vertex="1" parent="1">
          <mxGeometry x="200" y="230" width="120" height="80" as="geometry" />
        </mxCell>
        <mxCell id="F4dXuQAAL5yqhPB8CNjt-4" value="Theatre_id&lt;br&gt;_________" style="ellipse;whiteSpace=wrap;html=1;" vertex="1" parent="1">
          <mxGeometry x="150" y="360" width="120" height="80" as="geometry" />
        </mxCell>
        <mxCell id="F4dXuQAAL5yqhPB8CNjt-5" value="" style="endArrow=none;html=1;entryX=0.9;entryY=0.775;entryDx=0;entryDy=0;entryPerimeter=0;exitX=0.142;exitY=0.017;exitDx=0;exitDy=0;exitPerimeter=0;" edge="1" parent="1" source="F4dXuQAAL5yqhPB8CNjt-1" target="F4dXuQAAL5yqhPB8CNjt-2">
          <mxGeometry width="50" height="50" relative="1" as="geometry">
            <mxPoint x="390" y="250" as="sourcePoint" />
            <mxPoint x="440" y="200" as="targetPoint" />
          </mxGeometry>
        </mxCell>
        <mxCell id="F4dXuQAAL5yqhPB8CNjt-6" value="" style="endArrow=none;html=1;entryX=0.983;entryY=0.663;entryDx=0;entryDy=0;entryPerimeter=0;exitX=0.358;exitY=1;exitDx=0;exitDy=0;exitPerimeter=0;" edge="1" parent="1" source="F4dXuQAAL5yqhPB8CNjt-1" target="F4dXuQAAL5yqhPB8CNjt-3">
          <mxGeometry width="50" height="50" relative="1" as="geometry">
            <mxPoint x="390" y="250" as="sourcePoint" />
            <mxPoint x="440" y="200" as="targetPoint" />
          </mxGeometry>
        </mxCell>
        <mxCell id="F4dXuQAAL5yqhPB8CNjt-7" value="" style="endArrow=none;html=1;exitX=0.592;exitY=0.983;exitDx=0;exitDy=0;exitPerimeter=0;" edge="1" parent="1" source="F4dXuQAAL5yqhPB8CNjt-1">
          <mxGeometry width="50" height="50" relative="1" as="geometry">
            <mxPoint x="390" y="250" as="sourcePoint" />
            <mxPoint x="260" y="377" as="targetPoint" />
          </mxGeometry>
        </mxCell>
        <mxCell id="F4dXuQAAL5yqhPB8CNjt-8" value="Has" style="rhombus;whiteSpace=wrap;html=1;" vertex="1" parent="1">
          <mxGeometry x="530" y="150" width="80" height="80" as="geometry" />
        </mxCell>
        <mxCell id="F4dXuQAAL5yqhPB8CNjt-9" value="Tickets" style="rounded=0;whiteSpace=wrap;html=1;" vertex="1" parent="1">
          <mxGeometry x="690" y="60" width="120" height="60" as="geometry" />
        </mxCell>
        <mxCell id="F4dXuQAAL5yqhPB8CNjt-10" value="Movie_Screen" style="rounded=1;whiteSpace=wrap;html=1;" vertex="1" parent="1">
          <mxGeometry x="670" y="290" width="120" height="60" as="geometry" />
        </mxCell>
        <mxCell id="F4dXuQAAL5yqhPB8CNjt-11" value="" style="endArrow=none;html=1;entryX=0;entryY=0.5;entryDx=0;entryDy=0;exitX=1;exitY=0.5;exitDx=0;exitDy=0;" edge="1" parent="1" source="F4dXuQAAL5yqhPB8CNjt-1" target="F4dXuQAAL5yqhPB8CNjt-8">
          <mxGeometry width="50" height="50" relative="1" as="geometry">
            <mxPoint x="390" y="250" as="sourcePoint" />
            <mxPoint x="440" y="200" as="targetPoint" />
          </mxGeometry>
        </mxCell>
        <mxCell id="F4dXuQAAL5yqhPB8CNjt-12" value="" style="endArrow=none;html=1;entryX=0.058;entryY=1.017;entryDx=0;entryDy=0;entryPerimeter=0;exitX=1;exitY=0.5;exitDx=0;exitDy=0;" edge="1" parent="1" source="F4dXuQAAL5yqhPB8CNjt-8" target="F4dXuQAAL5yqhPB8CNjt-9">
          <mxGeometry width="50" height="50" relative="1" as="geometry">
            <mxPoint x="620" y="180" as="sourcePoint" />
            <mxPoint x="440" y="200" as="targetPoint" />
          </mxGeometry>
        </mxCell>
        <mxCell id="F4dXuQAAL5yqhPB8CNjt-13" value="" style="endArrow=none;html=1;entryX=0.5;entryY=1;entryDx=0;entryDy=0;exitX=0.067;exitY=-0.033;exitDx=0;exitDy=0;exitPerimeter=0;" edge="1" parent="1" source="F4dXuQAAL5yqhPB8CNjt-10" target="F4dXuQAAL5yqhPB8CNjt-8">
          <mxGeometry width="50" height="50" relative="1" as="geometry">
            <mxPoint x="390" y="250" as="sourcePoint" />
            <mxPoint x="440" y="200" as="targetPoint" />
          </mxGeometry>
        </mxCell>
        <mxCell id="F4dXuQAAL5yqhPB8CNjt-14" value="Type of seat" style="rhombus;whiteSpace=wrap;html=1;" vertex="1" parent="1">
          <mxGeometry x="760" y="370" width="80" height="80" as="geometry" />
        </mxCell>
        <mxCell id="F4dXuQAAL5yqhPB8CNjt-16" value="Class" style="rounded=0;whiteSpace=wrap;html=1;" vertex="1" parent="1">
          <mxGeometry x="860" y="480" width="120" height="60" as="geometry" />
        </mxCell>
        <mxCell id="F4dXuQAAL5yqhPB8CNjt-17" value="Is with" style="rhombus;whiteSpace=wrap;html=1;" vertex="1" parent="1">
          <mxGeometry x="600" y="390" width="80" height="80" as="geometry" />
        </mxCell>
        <mxCell id="F4dXuQAAL5yqhPB8CNjt-18" value="" style="endArrow=none;html=1;entryX=0.25;entryY=1;entryDx=0;entryDy=0;exitX=0.638;exitY=0.075;exitDx=0;exitDy=0;exitPerimeter=0;" edge="1" parent="1" source="F4dXuQAAL5yqhPB8CNjt-17" target="F4dXuQAAL5yqhPB8CNjt-10">
          <mxGeometry width="50" height="50" relative="1" as="geometry">
            <mxPoint x="650" y="390" as="sourcePoint" />
            <mxPoint x="620" y="380" as="targetPoint" />
          </mxGeometry>
        </mxCell>
        <mxCell id="F4dXuQAAL5yqhPB8CNjt-19" value="Atmosphere" style="rounded=0;whiteSpace=wrap;html=1;" vertex="1" parent="1">
          <mxGeometry x="570" y="500" width="120" height="60" as="geometry" />
        </mxCell>
        <mxCell id="F4dXuQAAL5yqhPB8CNjt-20" value="" style="endArrow=none;html=1;entryX=0.5;entryY=1;entryDx=0;entryDy=0;exitX=0.5;exitY=0;exitDx=0;exitDy=0;" edge="1" parent="1" source="F4dXuQAAL5yqhPB8CNjt-19" target="F4dXuQAAL5yqhPB8CNjt-17">
          <mxGeometry width="50" height="50" relative="1" as="geometry">
            <mxPoint x="570" y="430" as="sourcePoint" />
            <mxPoint x="620" y="380" as="targetPoint" />
          </mxGeometry>
        </mxCell>
        <mxCell id="F4dXuQAAL5yqhPB8CNjt-21" value="AC" style="ellipse;whiteSpace=wrap;html=1;" vertex="1" parent="1">
          <mxGeometry x="440" y="600" width="120" height="80" as="geometry" />
        </mxCell>
        <mxCell id="F4dXuQAAL5yqhPB8CNjt-22" value="NON AC" style="ellipse;whiteSpace=wrap;html=1;" vertex="1" parent="1">
          <mxGeometry x="640" y="600" width="120" height="80" as="geometry" />
        </mxCell>
        <mxCell id="F4dXuQAAL5yqhPB8CNjt-24" value="FAN" style="ellipse;whiteSpace=wrap;html=1;" vertex="1" parent="1">
          <mxGeometry x="530" y="700" width="120" height="80" as="geometry" />
        </mxCell>
        <mxCell id="F4dXuQAAL5yqhPB8CNjt-25" value="" style="endArrow=none;html=1;entryX=0.342;entryY=1.017;entryDx=0;entryDy=0;entryPerimeter=0;exitX=0.908;exitY=0.275;exitDx=0;exitDy=0;exitPerimeter=0;" edge="1" parent="1" source="F4dXuQAAL5yqhPB8CNjt-21" target="F4dXuQAAL5yqhPB8CNjt-19">
          <mxGeometry width="50" height="50" relative="1" as="geometry">
            <mxPoint x="560" y="620" as="sourcePoint" />
            <mxPoint x="620" y="570" as="targetPoint" />
          </mxGeometry>
        </mxCell>
        <mxCell id="F4dXuQAAL5yqhPB8CNjt-26" value="" style="endArrow=none;html=1;entryX=0.667;entryY=1.017;entryDx=0;entryDy=0;entryPerimeter=0;exitX=0;exitY=0;exitDx=0;exitDy=0;" edge="1" parent="1" source="F4dXuQAAL5yqhPB8CNjt-22" target="F4dXuQAAL5yqhPB8CNjt-19">
          <mxGeometry width="50" height="50" relative="1" as="geometry">
            <mxPoint x="570" y="620" as="sourcePoint" />
            <mxPoint x="620" y="570" as="targetPoint" />
          </mxGeometry>
        </mxCell>
        <mxCell id="F4dXuQAAL5yqhPB8CNjt-27" value="" style="endArrow=none;html=1;entryX=0.5;entryY=1;entryDx=0;entryDy=0;" edge="1" parent="1" source="F4dXuQAAL5yqhPB8CNjt-24" target="F4dXuQAAL5yqhPB8CNjt-19">
          <mxGeometry width="50" height="50" relative="1" as="geometry">
            <mxPoint x="570" y="620" as="sourcePoint" />
            <mxPoint x="620" y="570" as="targetPoint" />
          </mxGeometry>
        </mxCell>
        <mxCell id="F4dXuQAAL5yqhPB8CNjt-28" value="" style="endArrow=none;html=1;entryX=0.5;entryY=1;entryDx=0;entryDy=0;exitX=0.25;exitY=0;exitDx=0;exitDy=0;" edge="1" parent="1" source="F4dXuQAAL5yqhPB8CNjt-16" target="F4dXuQAAL5yqhPB8CNjt-14">
          <mxGeometry width="50" height="50" relative="1" as="geometry">
            <mxPoint x="570" y="460" as="sourcePoint" />
            <mxPoint x="620" y="410" as="targetPoint" />
          </mxGeometry>
        </mxCell>
        <mxCell id="F4dXuQAAL5yqhPB8CNjt-29" value="" style="endArrow=none;html=1;entryX=0.933;entryY=0.933;entryDx=0;entryDy=0;entryPerimeter=0;exitX=0.5;exitY=0;exitDx=0;exitDy=0;" edge="1" parent="1" source="F4dXuQAAL5yqhPB8CNjt-14" target="F4dXuQAAL5yqhPB8CNjt-10">
          <mxGeometry width="50" height="50" relative="1" as="geometry">
            <mxPoint x="570" y="460" as="sourcePoint" />
            <mxPoint x="620" y="410" as="targetPoint" />
          </mxGeometry>
        </mxCell>
        <mxCell id="F4dXuQAAL5yqhPB8CNjt-30" value="Back row (sofa)" style="ellipse;whiteSpace=wrap;html=1;" vertex="1" parent="1">
          <mxGeometry x="850" y="570" width="120" height="80" as="geometry" />
        </mxCell>
        <mxCell id="F4dXuQAAL5yqhPB8CNjt-31" value="Middle seats" style="ellipse;whiteSpace=wrap;html=1;" vertex="1" parent="1">
          <mxGeometry x="1020" y="520" width="120" height="80" as="geometry" />
        </mxCell>
        <mxCell id="F4dXuQAAL5yqhPB8CNjt-32" value="Front seats" style="ellipse;whiteSpace=wrap;html=1;" vertex="1" parent="1">
          <mxGeometry x="1110" y="420" width="120" height="80" as="geometry" />
        </mxCell>
        <mxCell id="F4dXuQAAL5yqhPB8CNjt-33" value="" style="endArrow=none;html=1;entryX=0.083;entryY=0.288;entryDx=0;entryDy=0;entryPerimeter=0;" edge="1" parent="1" source="F4dXuQAAL5yqhPB8CNjt-16" target="F4dXuQAAL5yqhPB8CNjt-32">
          <mxGeometry width="50" height="50" relative="1" as="geometry">
            <mxPoint x="1020" y="460" as="sourcePoint" />
            <mxPoint x="1070" y="410" as="targetPoint" />
          </mxGeometry>
        </mxCell>
        <mxCell id="F4dXuQAAL5yqhPB8CNjt-34" value="" style="endArrow=none;html=1;entryX=0;entryY=0;entryDx=0;entryDy=0;exitX=1;exitY=0.75;exitDx=0;exitDy=0;" edge="1" parent="1" source="F4dXuQAAL5yqhPB8CNjt-16" target="F4dXuQAAL5yqhPB8CNjt-31">
          <mxGeometry width="50" height="50" relative="1" as="geometry">
            <mxPoint x="1020" y="460" as="sourcePoint" />
            <mxPoint x="1070" y="410" as="targetPoint" />
          </mxGeometry>
        </mxCell>
        <mxCell id="F4dXuQAAL5yqhPB8CNjt-35" value="" style="endArrow=none;html=1;exitX=0.5;exitY=1;exitDx=0;exitDy=0;entryX=0.675;entryY=0.063;entryDx=0;entryDy=0;entryPerimeter=0;" edge="1" parent="1" source="F4dXuQAAL5yqhPB8CNjt-16" target="F4dXuQAAL5yqhPB8CNjt-30">
          <mxGeometry width="50" height="50" relative="1" as="geometry">
            <mxPoint x="1020" y="460" as="sourcePoint" />
            <mxPoint x="1070" y="410" as="targetPoint" />
          </mxGeometry>
        </mxCell>
        <mxCell id="F4dXuQAAL5yqhPB8CNjt-36" value="Selected by&amp;nbsp;" style="rhombus;whiteSpace=wrap;html=1;" vertex="1" parent="1">
          <mxGeometry x="1260" y="570" width="80" height="80" as="geometry" />
        </mxCell>
        <mxCell id="F4dXuQAAL5yqhPB8CNjt-37" value="" style="endArrow=none;html=1;entryX=0.5;entryY=1;entryDx=0;entryDy=0;exitX=0.983;exitY=0.675;exitDx=0;exitDy=0;exitPerimeter=0;" edge="1" parent="1" source="F4dXuQAAL5yqhPB8CNjt-30" target="F4dXuQAAL5yqhPB8CNjt-36">
          <mxGeometry width="50" height="50" relative="1" as="geometry">
            <mxPoint x="1020" y="600" as="sourcePoint" />
            <mxPoint x="1070" y="550" as="targetPoint" />
          </mxGeometry>
        </mxCell>
        <mxCell id="F4dXuQAAL5yqhPB8CNjt-38" value="" style="endArrow=none;html=1;exitX=0.942;exitY=0.775;exitDx=0;exitDy=0;exitPerimeter=0;" edge="1" parent="1" source="F4dXuQAAL5yqhPB8CNjt-31">
          <mxGeometry width="50" height="50" relative="1" as="geometry">
            <mxPoint x="1020" y="600" as="sourcePoint" />
            <mxPoint x="1270" y="600" as="targetPoint" />
          </mxGeometry>
        </mxCell>
        <mxCell id="F4dXuQAAL5yqhPB8CNjt-39" value="" style="endArrow=none;html=1;entryX=0.5;entryY=0;entryDx=0;entryDy=0;exitX=0.917;exitY=0.763;exitDx=0;exitDy=0;exitPerimeter=0;" edge="1" parent="1" source="F4dXuQAAL5yqhPB8CNjt-32" target="F4dXuQAAL5yqhPB8CNjt-36">
          <mxGeometry width="50" height="50" relative="1" as="geometry">
            <mxPoint x="1020" y="600" as="sourcePoint" />
            <mxPoint x="1070" y="550" as="targetPoint" />
          </mxGeometry>
        </mxCell>
        <mxCell id="F4dXuQAAL5yqhPB8CNjt-40" value="People" style="rounded=1;whiteSpace=wrap;html=1;" vertex="1" parent="1">
          <mxGeometry x="1400" y="620" width="120" height="60" as="geometry" />
        </mxCell>
        <mxCell id="F4dXuQAAL5yqhPB8CNjt-41" value="" style="endArrow=none;html=1;entryX=0;entryY=0.25;entryDx=0;entryDy=0;exitX=1;exitY=0.5;exitDx=0;exitDy=0;" edge="1" parent="1" source="F4dXuQAAL5yqhPB8CNjt-36" target="F4dXuQAAL5yqhPB8CNjt-40">
          <mxGeometry width="50" height="50" relative="1" as="geometry">
            <mxPoint x="1020" y="600" as="sourcePoint" />
            <mxPoint x="1070" y="550" as="targetPoint" />
          </mxGeometry>
        </mxCell>
        <mxCell id="F4dXuQAAL5yqhPB8CNjt-42" value="Age" style="ellipse;whiteSpace=wrap;html=1;" vertex="1" parent="1">
          <mxGeometry x="1420" y="720" width="120" height="80" as="geometry" />
        </mxCell>
        <mxCell id="F4dXuQAAL5yqhPB8CNjt-43" value="Sex" style="ellipse;whiteSpace=wrap;html=1;" vertex="1" parent="1">
          <mxGeometry x="1550" y="640" width="120" height="80" as="geometry" />
        </mxCell>
        <mxCell id="F4dXuQAAL5yqhPB8CNjt-46" value="Name" style="ellipse;whiteSpace=wrap;html=1;" vertex="1" parent="1">
          <mxGeometry x="1300" y="690" width="120" height="80" as="geometry" />
        </mxCell>
        <mxCell id="F4dXuQAAL5yqhPB8CNjt-47" value="" style="ellipse;whiteSpace=wrap;html=1;" vertex="1" parent="1">
          <mxGeometry x="1530" y="510" width="180" height="100" as="geometry" />
        </mxCell>
        <mxCell id="F4dXuQAAL5yqhPB8CNjt-49" value="Phone number" style="ellipse;whiteSpace=wrap;html=1;" vertex="1" parent="1">
          <mxGeometry x="1560" y="520" width="120" height="80" as="geometry" />
        </mxCell>
        <mxCell id="F4dXuQAAL5yqhPB8CNjt-50" value="" style="endArrow=none;html=1;entryX=0;entryY=0.5;entryDx=0;entryDy=0;exitX=0.5;exitY=0;exitDx=0;exitDy=0;" edge="1" parent="1" source="F4dXuQAAL5yqhPB8CNjt-40" target="F4dXuQAAL5yqhPB8CNjt-47">
          <mxGeometry width="50" height="50" relative="1" as="geometry">
            <mxPoint x="1260" y="580" as="sourcePoint" />
            <mxPoint x="1310" y="530" as="targetPoint" />
          </mxGeometry>
        </mxCell>
        <mxCell id="F4dXuQAAL5yqhPB8CNjt-51" value="" style="endArrow=none;html=1;entryX=0;entryY=0;entryDx=0;entryDy=0;exitX=1;exitY=0.5;exitDx=0;exitDy=0;" edge="1" parent="1" source="F4dXuQAAL5yqhPB8CNjt-40" target="F4dXuQAAL5yqhPB8CNjt-43">
          <mxGeometry width="50" height="50" relative="1" as="geometry">
            <mxPoint x="1260" y="580" as="sourcePoint" />
            <mxPoint x="1310" y="530" as="targetPoint" />
          </mxGeometry>
        </mxCell>
        <mxCell id="F4dXuQAAL5yqhPB8CNjt-52" value="" style="endArrow=none;html=1;entryX=0.808;entryY=1.033;entryDx=0;entryDy=0;entryPerimeter=0;exitX=0.6;exitY=-0.012;exitDx=0;exitDy=0;exitPerimeter=0;" edge="1" parent="1" source="F4dXuQAAL5yqhPB8CNjt-42" target="F4dXuQAAL5yqhPB8CNjt-40">
          <mxGeometry width="50" height="50" relative="1" as="geometry">
            <mxPoint x="1260" y="580" as="sourcePoint" />
            <mxPoint x="1310" y="530" as="targetPoint" />
          </mxGeometry>
        </mxCell>
        <mxCell id="F4dXuQAAL5yqhPB8CNjt-53" value="" style="endArrow=none;html=1;entryX=0;entryY=0.5;entryDx=0;entryDy=0;exitX=0.617;exitY=0.025;exitDx=0;exitDy=0;exitPerimeter=0;" edge="1" parent="1" source="F4dXuQAAL5yqhPB8CNjt-46" target="F4dXuQAAL5yqhPB8CNjt-40">
          <mxGeometry width="50" height="50" relative="1" as="geometry">
            <mxPoint x="1260" y="580" as="sourcePoint" />
            <mxPoint x="1310" y="530" as="targetPoint" />
          </mxGeometry>
        </mxCell>
        <mxCell id="F4dXuQAAL5yqhPB8CNjt-54" value="First name" style="ellipse;whiteSpace=wrap;html=1;" vertex="1" parent="1">
          <mxGeometry x="1150" y="810" width="120" height="80" as="geometry" />
        </mxCell>
        <mxCell id="F4dXuQAAL5yqhPB8CNjt-55" value="Last name" style="ellipse;whiteSpace=wrap;html=1;" vertex="1" parent="1">
          <mxGeometry x="1300" y="860" width="120" height="80" as="geometry" />
        </mxCell>
        <mxCell id="F4dXuQAAL5yqhPB8CNjt-56" value="" style="endArrow=none;html=1;exitX=1;exitY=0;exitDx=0;exitDy=0;" edge="1" parent="1" source="F4dXuQAAL5yqhPB8CNjt-54" target="F4dXuQAAL5yqhPB8CNjt-46">
          <mxGeometry width="50" height="50" relative="1" as="geometry">
            <mxPoint x="1260" y="860" as="sourcePoint" />
            <mxPoint x="1310" y="810" as="targetPoint" />
          </mxGeometry>
        </mxCell>
        <mxCell id="F4dXuQAAL5yqhPB8CNjt-57" value="" style="endArrow=none;html=1;entryX=0.442;entryY=1.013;entryDx=0;entryDy=0;entryPerimeter=0;exitX=0.433;exitY=-0.062;exitDx=0;exitDy=0;exitPerimeter=0;" edge="1" parent="1" source="F4dXuQAAL5yqhPB8CNjt-55" target="F4dXuQAAL5yqhPB8CNjt-46">
          <mxGeometry width="50" height="50" relative="1" as="geometry">
            <mxPoint x="1260" y="860" as="sourcePoint" />
            <mxPoint x="1310" y="810" as="targetPoint" />
          </mxGeometry>
        </mxCell>
        <mxCell id="F4dXuQAAL5yqhPB8CNjt-58" value="Native" style="ellipse;whiteSpace=wrap;html=1;" vertex="1" parent="1">
          <mxGeometry x="1560" y="780" width="120" height="80" as="geometry" />
        </mxCell>
        <mxCell id="F4dXuQAAL5yqhPB8CNjt-59" value="" style="endArrow=none;html=1;entryX=1;entryY=1;entryDx=0;entryDy=0;exitX=0.283;exitY=0.013;exitDx=0;exitDy=0;exitPerimeter=0;" edge="1" parent="1" source="F4dXuQAAL5yqhPB8CNjt-58" target="F4dXuQAAL5yqhPB8CNjt-40">
          <mxGeometry width="50" height="50" relative="1" as="geometry">
            <mxPoint x="1260" y="760" as="sourcePoint" />
            <mxPoint x="1310" y="710" as="targetPoint" />
          </mxGeometry>
        </mxCell>
        <mxCell id="F4dXuQAAL5yqhPB8CNjt-60" value="Marital Status" style="ellipse;whiteSpace=wrap;html=1;" vertex="1" parent="1">
          <mxGeometry x="1060" y="720" width="120" height="80" as="geometry" />
        </mxCell>
        <mxCell id="F4dXuQAAL5yqhPB8CNjt-61" value="Fav genre" style="ellipse;whiteSpace=wrap;html=1;" vertex="1" parent="1">
          <mxGeometry x="1410" y="450" width="120" height="80" as="geometry" />
        </mxCell>
        <mxCell id="F4dXuQAAL5yqhPB8CNjt-62" value="Fav actor/actress" style="ellipse;whiteSpace=wrap;html=1;" vertex="1" parent="1">
          <mxGeometry x="1550" y="400" width="120" height="80" as="geometry" />
        </mxCell>
        <mxCell id="F4dXuQAAL5yqhPB8CNjt-63" value="Prefered movie language" style="ellipse;whiteSpace=wrap;html=1;" vertex="1" parent="1">
          <mxGeometry x="1290" y="430" width="120" height="80" as="geometry" />
        </mxCell>
        <mxCell id="F4dXuQAAL5yqhPB8CNjt-64" value="" style="endArrow=none;html=1;entryX=0.5;entryY=1;entryDx=0;entryDy=0;exitX=0.175;exitY=-0.067;exitDx=0;exitDy=0;exitPerimeter=0;" edge="1" parent="1" source="F4dXuQAAL5yqhPB8CNjt-40" target="F4dXuQAAL5yqhPB8CNjt-63">
          <mxGeometry width="50" height="50" relative="1" as="geometry">
            <mxPoint x="1260" y="590" as="sourcePoint" />
            <mxPoint x="1310" y="540" as="targetPoint" />
          </mxGeometry>
        </mxCell>
        <mxCell id="F4dXuQAAL5yqhPB8CNjt-65" value="" style="endArrow=none;html=1;entryX=0.25;entryY=0.988;entryDx=0;entryDy=0;entryPerimeter=0;exitX=0.35;exitY=-0.05;exitDx=0;exitDy=0;exitPerimeter=0;" edge="1" parent="1" source="F4dXuQAAL5yqhPB8CNjt-40" target="F4dXuQAAL5yqhPB8CNjt-62">
          <mxGeometry width="50" height="50" relative="1" as="geometry">
            <mxPoint x="1260" y="590" as="sourcePoint" />
            <mxPoint x="1310" y="540" as="targetPoint" />
          </mxGeometry>
        </mxCell>
        <mxCell id="F4dXuQAAL5yqhPB8CNjt-66" value="" style="endArrow=none;html=1;exitX=1;exitY=0.5;exitDx=0;exitDy=0;" edge="1" parent="1" source="F4dXuQAAL5yqhPB8CNjt-60">
          <mxGeometry width="50" height="50" relative="1" as="geometry">
            <mxPoint x="1260" y="590" as="sourcePoint" />
            <mxPoint x="1400" y="640" as="targetPoint" />
          </mxGeometry>
        </mxCell>
        <mxCell id="F4dXuQAAL5yqhPB8CNjt-67" value="Show time" style="rounded=1;whiteSpace=wrap;html=1;" vertex="1" parent="1">
          <mxGeometry x="870" y="190" width="120" height="60" as="geometry" />
        </mxCell>
        <mxCell id="F4dXuQAAL5yqhPB8CNjt-68" value="" style="endArrow=none;html=1;exitX=1;exitY=0.5;exitDx=0;exitDy=0;" edge="1" parent="1" source="F4dXuQAAL5yqhPB8CNjt-10" target="F4dXuQAAL5yqhPB8CNjt-69">
          <mxGeometry width="50" height="50" relative="1" as="geometry">
            <mxPoint x="670" y="290" as="sourcePoint" />
            <mxPoint x="760" y="240" as="targetPoint" />
          </mxGeometry>
        </mxCell>
        <mxCell id="F4dXuQAAL5yqhPB8CNjt-69" value="Timings" style="rhombus;whiteSpace=wrap;html=1;" vertex="1" parent="1">
          <mxGeometry x="840" y="260" width="80" height="80" as="geometry" />
        </mxCell>
        <mxCell id="F4dXuQAAL5yqhPB8CNjt-70" value="" style="endArrow=none;html=1;entryX=0.7;entryY=0.967;entryDx=0;entryDy=0;entryPerimeter=0;exitX=1;exitY=0.5;exitDx=0;exitDy=0;" edge="1" parent="1" source="F4dXuQAAL5yqhPB8CNjt-69" target="F4dXuQAAL5yqhPB8CNjt-67">
          <mxGeometry width="50" height="50" relative="1" as="geometry">
            <mxPoint x="670" y="290" as="sourcePoint" />
            <mxPoint x="720" y="240" as="targetPoint" />
          </mxGeometry>
        </mxCell>
        <mxCell id="F4dXuQAAL5yqhPB8CNjt-71" value="Preferred by" style="rhombus;whiteSpace=wrap;html=1;" vertex="1" parent="1">
          <mxGeometry x="1030" y="240" width="80" height="80" as="geometry" />
        </mxCell>
        <mxCell id="F4dXuQAAL5yqhPB8CNjt-72" value="" style="endArrow=none;html=1;entryX=0;entryY=0.5;entryDx=0;entryDy=0;exitX=1;exitY=1;exitDx=0;exitDy=0;" edge="1" parent="1" source="F4dXuQAAL5yqhPB8CNjt-67" target="F4dXuQAAL5yqhPB8CNjt-71">
          <mxGeometry width="50" height="50" relative="1" as="geometry">
            <mxPoint x="670" y="290" as="sourcePoint" />
            <mxPoint x="1000" y="280" as="targetPoint" />
          </mxGeometry>
        </mxCell>
        <mxCell id="F4dXuQAAL5yqhPB8CNjt-73" value="" style="endArrow=none;html=1;entryX=0.5;entryY=1;entryDx=0;entryDy=0;exitX=0.108;exitY=-0.017;exitDx=0;exitDy=0;exitPerimeter=0;" edge="1" parent="1" source="F4dXuQAAL5yqhPB8CNjt-40" target="F4dXuQAAL5yqhPB8CNjt-71">
          <mxGeometry width="50" height="50" relative="1" as="geometry">
            <mxPoint x="670" y="290" as="sourcePoint" />
            <mxPoint x="720" y="240" as="targetPoint" />
          </mxGeometry>
        </mxCell>
        <mxCell id="F4dXuQAAL5yqhPB8CNjt-74" value="Which" style="rhombus;whiteSpace=wrap;html=1;" vertex="1" parent="1">
          <mxGeometry x="860" y="40" width="80" height="80" as="geometry" />
        </mxCell>
        <mxCell id="F4dXuQAAL5yqhPB8CNjt-75" value="Movie" style="rounded=0;whiteSpace=wrap;html=1;" vertex="1" parent="1">
          <mxGeometry x="1050" y="70" width="120" height="60" as="geometry" />
        </mxCell>
        <mxCell id="F4dXuQAAL5yqhPB8CNjt-76" value="" style="endArrow=none;html=1;entryX=0;entryY=0.5;entryDx=0;entryDy=0;exitX=1;exitY=0.5;exitDx=0;exitDy=0;" edge="1" parent="1" source="F4dXuQAAL5yqhPB8CNjt-9" target="F4dXuQAAL5yqhPB8CNjt-74">
          <mxGeometry width="50" height="50" relative="1" as="geometry">
            <mxPoint x="810" y="160" as="sourcePoint" />
            <mxPoint x="860" y="110" as="targetPoint" />
          </mxGeometry>
        </mxCell>
        <mxCell id="F4dXuQAAL5yqhPB8CNjt-77" value="" style="endArrow=none;html=1;entryX=0;entryY=0.5;entryDx=0;entryDy=0;exitX=1;exitY=0.5;exitDx=0;exitDy=0;" edge="1" parent="1" source="F4dXuQAAL5yqhPB8CNjt-74" target="F4dXuQAAL5yqhPB8CNjt-75">
          <mxGeometry width="50" height="50" relative="1" as="geometry">
            <mxPoint x="810" y="160" as="sourcePoint" />
            <mxPoint x="860" y="110" as="targetPoint" />
          </mxGeometry>
        </mxCell>
        <mxCell id="F4dXuQAAL5yqhPB8CNjt-78" value="Screening of" style="rhombus;whiteSpace=wrap;html=1;" vertex="1" parent="1">
          <mxGeometry x="1210" y="120" width="80" height="80" as="geometry" />
        </mxCell>
        <mxCell id="F4dXuQAAL5yqhPB8CNjt-80" value="" style="endArrow=none;html=1;entryX=0;entryY=0.5;entryDx=0;entryDy=0;exitX=1;exitY=0.5;exitDx=0;exitDy=0;" edge="1" parent="1" source="F4dXuQAAL5yqhPB8CNjt-75" target="F4dXuQAAL5yqhPB8CNjt-78">
          <mxGeometry width="50" height="50" relative="1" as="geometry">
            <mxPoint x="1140" y="150" as="sourcePoint" />
            <mxPoint x="1190" y="100" as="targetPoint" />
          </mxGeometry>
        </mxCell>
        <mxCell id="F4dXuQAAL5yqhPB8CNjt-82" value="Director" style="ellipse;whiteSpace=wrap;html=1;" vertex="1" parent="1">
          <mxGeometry x="1370" y="40" width="120" height="80" as="geometry" />
        </mxCell>
        <mxCell id="F4dXuQAAL5yqhPB8CNjt-83" value="Lead roles" style="ellipse;whiteSpace=wrap;html=1;" vertex="1" parent="1">
          <mxGeometry x="1340" y="160" width="120" height="80" as="geometry" />
        </mxCell>
        <mxCell id="F4dXuQAAL5yqhPB8CNjt-84" value="Genre" style="ellipse;whiteSpace=wrap;html=1;" vertex="1" parent="1">
          <mxGeometry x="1330" y="260" width="120" height="80" as="geometry" />
        </mxCell>
        <mxCell id="F4dXuQAAL5yqhPB8CNjt-85" value="language" style="ellipse;whiteSpace=wrap;html=1;" vertex="1" parent="1">
          <mxGeometry x="1240" y="30" width="120" height="80" as="geometry" />
        </mxCell>
        <mxCell id="F4dXuQAAL5yqhPB8CNjt-87" value="Rating" style="ellipse;whiteSpace=wrap;html=1;" vertex="1" parent="1">
          <mxGeometry x="1200" y="240" width="120" height="80" as="geometry" />
        </mxCell>
        <mxCell id="F4dXuQAAL5yqhPB8CNjt-88" value="" style="endArrow=none;html=1;entryX=0.5;entryY=0;entryDx=0;entryDy=0;exitX=0;exitY=1;exitDx=0;exitDy=0;" edge="1" parent="1" source="F4dXuQAAL5yqhPB8CNjt-85" target="F4dXuQAAL5yqhPB8CNjt-78">
          <mxGeometry width="50" height="50" relative="1" as="geometry">
            <mxPoint x="1140" y="150" as="sourcePoint" />
            <mxPoint x="1190" y="100" as="targetPoint" />
          </mxGeometry>
        </mxCell>
        <mxCell id="F4dXuQAAL5yqhPB8CNjt-89" value="" style="endArrow=none;html=1;exitX=0.925;exitY=0.525;exitDx=0;exitDy=0;exitPerimeter=0;" edge="1" parent="1" source="F4dXuQAAL5yqhPB8CNjt-78" target="F4dXuQAAL5yqhPB8CNjt-82">
          <mxGeometry width="50" height="50" relative="1" as="geometry">
            <mxPoint x="1140" y="150" as="sourcePoint" />
            <mxPoint x="1190" y="100" as="targetPoint" />
          </mxGeometry>
        </mxCell>
        <mxCell id="F4dXuQAAL5yqhPB8CNjt-90" value="" style="endArrow=none;html=1;entryX=0;entryY=0.5;entryDx=0;entryDy=0;" edge="1" parent="1" target="F4dXuQAAL5yqhPB8CNjt-83">
          <mxGeometry width="50" height="50" relative="1" as="geometry">
            <mxPoint x="1270" y="180" as="sourcePoint" />
            <mxPoint x="1190" y="100" as="targetPoint" />
          </mxGeometry>
        </mxCell>
        <mxCell id="F4dXuQAAL5yqhPB8CNjt-91" value="" style="endArrow=none;html=1;entryX=0.388;entryY=0.863;entryDx=0;entryDy=0;entryPerimeter=0;exitX=0.367;exitY=0;exitDx=0;exitDy=0;exitPerimeter=0;" edge="1" parent="1" source="F4dXuQAAL5yqhPB8CNjt-87" target="F4dXuQAAL5yqhPB8CNjt-78">
          <mxGeometry width="50" height="50" relative="1" as="geometry">
            <mxPoint x="1140" y="150" as="sourcePoint" />
            <mxPoint x="1190" y="100" as="targetPoint" />
          </mxGeometry>
        </mxCell>
        <mxCell id="F4dXuQAAL5yqhPB8CNjt-92" value="" style="endArrow=none;html=1;entryX=0.663;entryY=0.863;entryDx=0;entryDy=0;entryPerimeter=0;exitX=0.4;exitY=0.038;exitDx=0;exitDy=0;exitPerimeter=0;" edge="1" parent="1" source="F4dXuQAAL5yqhPB8CNjt-84" target="F4dXuQAAL5yqhPB8CNjt-78">
          <mxGeometry width="50" height="50" relative="1" as="geometry">
            <mxPoint x="1140" y="150" as="sourcePoint" />
            <mxPoint x="1190" y="100" as="targetPoint" />
          </mxGeometry>
        </mxCell>
        <mxCell id="F4dXuQAAL5yqhPB8CNjt-94" value="Car parking" style="rounded=0;whiteSpace=wrap;html=1;" vertex="1" parent="1">
          <mxGeometry x="330" y="400" width="120" height="60" as="geometry" />
        </mxCell>
        <mxCell id="F4dXuQAAL5yqhPB8CNjt-95" value="Food court" style="rounded=0;whiteSpace=wrap;html=1;" vertex="1" parent="1">
          <mxGeometry x="420" y="490" width="120" height="60" as="geometry" />
        </mxCell>
        <mxCell id="F4dXuQAAL5yqhPB8CNjt-96" value="" style="endArrow=none;html=1;entryX=0.388;entryY=0.85;entryDx=0;entryDy=0;entryPerimeter=0;exitX=0.5;exitY=0;exitDx=0;exitDy=0;" edge="1" parent="1" source="F4dXuQAAL5yqhPB8CNjt-94" target="F4dXuQAAL5yqhPB8CNjt-8">
          <mxGeometry width="50" height="50" relative="1" as="geometry">
            <mxPoint x="600" y="370" as="sourcePoint" />
            <mxPoint x="650" y="320" as="targetPoint" />
          </mxGeometry>
        </mxCell>
        <mxCell id="F4dXuQAAL5yqhPB8CNjt-97" value="" style="endArrow=none;html=1;exitX=0.833;exitY=0;exitDx=0;exitDy=0;exitPerimeter=0;entryX=0.463;entryY=0.9;entryDx=0;entryDy=0;entryPerimeter=0;" edge="1" parent="1" source="F4dXuQAAL5yqhPB8CNjt-95" target="F4dXuQAAL5yqhPB8CNjt-8">
          <mxGeometry width="50" height="50" relative="1" as="geometry">
            <mxPoint x="600" y="370" as="sourcePoint" />
            <mxPoint x="570" y="230" as="targetPoint" />
          </mxGeometry>
        </mxCell>
        <mxCell id="F4dXuQAAL5yqhPB8CNjt-99" value="Name" style="ellipse;whiteSpace=wrap;html=1;" vertex="1" parent="1">
          <mxGeometry x="210" y="530" width="120" height="80" as="geometry" />
        </mxCell>
        <mxCell id="F4dXuQAAL5yqhPB8CNjt-100" value="Cusine" style="ellipse;whiteSpace=wrap;html=1;" vertex="1" parent="1">
          <mxGeometry x="280" y="630" width="120" height="80" as="geometry" />
        </mxCell>
        <mxCell id="F4dXuQAAL5yqhPB8CNjt-101" value="" style="endArrow=none;html=1;entryX=0.342;entryY=1.05;entryDx=0;entryDy=0;entryPerimeter=0;" edge="1" parent="1" target="F4dXuQAAL5yqhPB8CNjt-95">
          <mxGeometry width="50" height="50" relative="1" as="geometry">
            <mxPoint x="387" y="640" as="sourcePoint" />
            <mxPoint x="490" y="580" as="targetPoint" />
          </mxGeometry>
        </mxCell>
        <mxCell id="F4dXuQAAL5yqhPB8CNjt-102" value="" style="endArrow=none;html=1;entryX=0;entryY=0.75;entryDx=0;entryDy=0;exitX=1.025;exitY=0.425;exitDx=0;exitDy=0;exitPerimeter=0;" edge="1" parent="1" source="F4dXuQAAL5yqhPB8CNjt-99" target="F4dXuQAAL5yqhPB8CNjt-95">
          <mxGeometry width="50" height="50" relative="1" as="geometry">
            <mxPoint x="440" y="630" as="sourcePoint" />
            <mxPoint x="490" y="580" as="targetPoint" />
          </mxGeometry>
        </mxCell>
        <mxCell id="F4dXuQAAL5yqhPB8CNjt-105" value="Watched by" style="rhombus;whiteSpace=wrap;html=1;" vertex="1" parent="1">
          <mxGeometry x="1110" y="190" width="80" height="80" as="geometry" />
        </mxCell>
        <mxCell id="F4dXuQAAL5yqhPB8CNjt-106" value="" style="endArrow=none;html=1;entryX=0.75;entryY=1;entryDx=0;entryDy=0;" edge="1" parent="1" target="F4dXuQAAL5yqhPB8CNjt-75">
          <mxGeometry width="50" height="50" relative="1" as="geometry">
            <mxPoint x="1150" y="190" as="sourcePoint" />
            <mxPoint x="1200" y="300" as="targetPoint" />
          </mxGeometry>
        </mxCell>
        <mxCell id="F4dXuQAAL5yqhPB8CNjt-107" value="" style="endArrow=none;html=1;entryX=0.588;entryY=1;entryDx=0;entryDy=0;entryPerimeter=0;exitX=0.15;exitY=0;exitDx=0;exitDy=0;exitPerimeter=0;" edge="1" parent="1" source="F4dXuQAAL5yqhPB8CNjt-40" target="F4dXuQAAL5yqhPB8CNjt-105">
          <mxGeometry width="50" height="50" relative="1" as="geometry">
            <mxPoint x="1280" y="500" as="sourcePoint" />
            <mxPoint x="1200" y="300" as="targetPoint" />
          </mxGeometry>
        </mxCell>
        <mxCell id="F4dXuQAAL5yqhPB8CNjt-108" value="&lt;font style=&quot;font-size: 24px&quot;&gt;&lt;b&gt;18BEC0295&lt;br&gt;&lt;br&gt;THUMMALA SATHVIKA&lt;/b&gt;&lt;/font&gt;" style="text;html=1;strokeColor=none;fillColor=none;align=center;verticalAlign=middle;whiteSpace=wrap;rounded=0;" vertex="1" parent="1">
          <mxGeometry x="690" y="800" width="270" height="130" as="geometry" />
        </mxCell>
      </root>
    </mxGraphModel>
  </diagram>
</mxfile>
